<svg xmlns="http://www.w3.org/2000/svg" viewBox="0 0 32 32" fill="none">
  <!-- Lotus petals - outer ring -->
  <ellipse cx="16" cy="9" rx="3.5" ry="6.5" fill="#FF6F00" opacity="0.85" transform="rotate(0 16 16)"/>
  <ellipse cx="16" cy="9" rx="3.5" ry="6.5" fill="#FF6F00" opacity="0.85" transform="rotate(45 16 16)"/>
  <ellipse cx="16" cy="9" rx="3.5" ry="6.5" fill="#FF6F00" opacity="0.85" transform="rotate(90 16 16)"/>
  <ellipse cx="16" cy="9" rx="3.5" ry="6.5" fill="#FF6F00" opacity="0.85" transform="rotate(135 16 16)"/>
  <ellipse cx="16" cy="9" rx="3.5" ry="6.5" fill="#FF6F00" opacity="0.85" transform="rotate(180 16 16)"/>
  <ellipse cx="16" cy="9" rx="3.5" ry="6.5" fill="#FF6F00" opacity="0.85" transform="rotate(225 16 16)"/>
  <ellipse cx="16" cy="9" rx="3.5" ry="6.5" fill="#FF6F00" opacity="0.85" transform="rotate(270 16 16)"/>
  <ellipse cx="16" cy="9" rx="3.5" ry="6.5" fill="#FF6F00" opacity="0.85" transform="rotate(315 16 16)"/>
  <!-- Center circle -->
  <circle cx="16" cy="16" r="5" fill="#FFC107"/>
  <circle cx="16" cy="16" r="3" fill="#FF6F00"/>
</svg>
